<svg xmlns="http://www.w3.org/2000/svg" viewBox="0 0 1400 1080" font-family="system-ui, -apple-system, &quot;PingFang SC&quot;, &quot;Helvetica Neue&quot;, Arial, sans-serif">
  <defs>
    <style>text{font-family:system-ui,-apple-system,"PingFang SC","Helvetica Neue",Arial,sans-serif;}</style>
    <marker id="arrow-gray" markerWidth="10" markerHeight="8" refX="9" refY="4" orient="auto" markerUnits="strokeWidth">
      <path d="M0,0 L9,4 L0,8 Z" fill="#475569"/>
    </marker>
    <marker id="arrow-blue" markerWidth="10" markerHeight="8" refX="9" refY="4" orient="auto" markerUnits="strokeWidth">
      <path d="M0,0 L9,4 L0,8 Z" fill="#2563eb"/>
    </marker>
    <marker id="arrow-green" markerWidth="10" markerHeight="8" refX="9" refY="4" orient="auto" markerUnits="strokeWidth">
      <path d="M0,0 L9,4 L0,8 Z" fill="#059669"/>
    </marker>
    <marker id="arrow-orange" markerWidth="10" markerHeight="8" refX="9" refY="4" orient="auto" markerUnits="strokeWidth">
      <path d="M0,0 L9,4 L0,8 Z" fill="#ea580c"/>
    </marker>
    <marker id="arrow-purple" markerWidth="10" markerHeight="8" refX="9" refY="4" orient="auto" markerUnits="strokeWidth">
      <path d="M0,0 L9,4 L0,8 Z" fill="#7c3aed"/>
    </marker>
    <marker id="arrow-slate" markerWidth="10" markerHeight="8" refX="9" refY="4" orient="auto" markerUnits="strokeWidth">
      <path d="M0,0 L9,4 L0,8 Z" fill="#334155"/>
    </marker>
    <marker id="arrow-amber" markerWidth="10" markerHeight="8" refX="9" refY="4" orient="auto" markerUnits="strokeWidth">
      <path d="M0,0 L9,4 L0,8 Z" fill="#ca8a04"/>
    </marker>
    <filter id="soft" x="-20%" y="-20%" width="140%" height="140%">
      <feDropShadow dx="0" dy="1" stdDeviation="1.2" flood-color="#0f172a" flood-opacity="0.10"/>
    </filter>
  </defs>
  <rect width="1400" height="1080" fill="#ffffff"/>
  <text x="700" y="42" text-anchor="middle" font-size="24" font-weight="700" fill="#0f172a">publish-skill — 框架图</text>
  <text x="700" y="68" text-anchor="middle" font-size="13" fill="#64748b">v0.3.0 · 4 路径路由 + 对话式状态机 + 共享模板 · 目标 aistore-labs/claude-skills</text>
  <rect x="80" y="92" width="1240" height="58" rx="8" fill="#f8fafc" stroke="#cbd5e1" stroke-width="1"/>
  <text x="100" y="115" font-size="13" font-weight="600" fill="#475569">用户触发短语</text>
  <text x="100" y="136" font-size="12" fill="#334155">“把本地 X 发到公司库” · “这个 skill 不错, 分享给公司” · “给公司推荐 https://...” · “给 X 加个案例”</text>
  <line x1="700" y1="150" x2="700" y2="170" stroke="#475569" stroke-width="1.5" marker-end="url(#arrow-gray)"/>
  <rect x="80" y="178" width="1240" height="152" rx="10" fill="#fefce8" stroke="#ca8a04" stroke-width="1.5"/>
  <text x="100" y="200" font-size="14" font-weight="700" fill="#854d0e">§1 入口路由 (AI 自动判定, 不需用户指明)</text>
  <rect x="110" y="218" width="380" height="95" rx="6" fill="#ffffff" stroke="#ca8a04" stroke-width="1"/>
  <text x="122" y="238" font-size="13" font-weight="700" fill="#92400e">1.1 解析触发短语</text>
  <text x="122" y="258" font-size="11" fill="#475569">含 URL → C</text>
  <text x="122" y="274" font-size="11" fill="#475569">含 '加案例' → D</text>
  <text x="122" y="290" font-size="11" fill="#475569">其他 → 1.2</text>
  <line x1="492" y1="265.5" x2="511" y2="265.5" stroke="#ca8a04" stroke-width="1.5" marker-end="url(#arrow-amber)"/>
  <rect x="515" y="218" width="380" height="95" rx="6" fill="#ffffff" stroke="#ca8a04" stroke-width="1"/>
  <text x="527" y="238" font-size="13" font-weight="700" fill="#92400e">1.2 候选 skill 推断</text>
  <text x="527" y="258" font-size="11" fill="#475569">扫上下文最近调用</text>
  <text x="527" y="274" font-size="11" fill="#475569">0 → 问用户; 1 → 确认</text>
  <text x="527" y="290" font-size="11" fill="#475569">≥2 → 列编号清单</text>
  <line x1="897" y1="265.5" x2="916" y2="265.5" stroke="#ca8a04" stroke-width="1.5" marker-end="url(#arrow-amber)"/>
  <rect x="920" y="218" width="380" height="95" rx="6" fill="#ffffff" stroke="#ca8a04" stroke-width="1"/>
  <text x="932" y="238" font-size="13" font-weight="700" fill="#92400e">1.3 origin 检测</text>
  <text x="932" y="258" font-size="11" fill="#475569">本地 author / gh user / 网搜</text>
  <text x="932" y="274" font-size="11" fill="#475569">own → A · external → B</text>
  <text x="932" y="290" font-size="11" fill="#475569">信号不清 → 必须问用户</text>
  <line x1="230" y1="330" x2="230" y2="354" stroke="#475569" stroke-width="1.5" marker-end="url(#arrow-gray)"/>
  <circle cx="252" cy="342" r="11" fill="#fef3c7" stroke="#ca8a04" stroke-width="1"/>
  <text x="252" y="346" text-anchor="middle" font-size="11" font-weight="700" fill="#854d0e">A</text>
  <line x1="570" y1="330" x2="570" y2="354" stroke="#475569" stroke-width="1.5" marker-end="url(#arrow-gray)"/>
  <circle cx="592" cy="342" r="11" fill="#fef3c7" stroke="#ca8a04" stroke-width="1"/>
  <text x="592" y="346" text-anchor="middle" font-size="11" font-weight="700" fill="#854d0e">B</text>
  <line x1="910" y1="330" x2="910" y2="354" stroke="#475569" stroke-width="1.5" marker-end="url(#arrow-gray)"/>
  <circle cx="932" cy="342" r="11" fill="#fef3c7" stroke="#ca8a04" stroke-width="1"/>
  <text x="932" y="346" text-anchor="middle" font-size="11" font-weight="700" fill="#854d0e">C</text>
  <line x1="1250" y1="330" x2="1250" y2="354" stroke="#475569" stroke-width="1.5" marker-end="url(#arrow-gray)"/>
  <circle cx="1272" cy="342" r="11" fill="#fef3c7" stroke="#ca8a04" stroke-width="1"/>
  <text x="1272" y="346" text-anchor="middle" font-size="11" font-weight="700" fill="#854d0e">D</text>
  <rect x="80" y="362" width="300" height="54" rx="8" fill="#2563eb" />
  <text x="94" y="385" font-size="14" font-weight="700" fill="#ffffff">路径 A — own 直路发布</text>
  <text x="94" y="405" font-size="11" fill="#dbeafe" fill-opacity="0.95">适用: 自己写的本地 skill</text>
  <rect x="80" y="424" width="300" height="415" rx="8" fill="#eff6ff" stroke="#2563eb" stroke-width="1" stroke-opacity="0.35"/>
  <rect x="92" y="435" width="276" height="58" rx="6" fill="#ffffff" stroke="#2563eb" stroke-width="1.2" filter="url(#soft)"/>
  <text x="104" y="454" font-size="12.5" font-weight="700" fill="#2563eb">1. 定位 + 检测历史</text>
  <text x="104" y="469" font-size="10.5" fill="#475569">~/.claude/skills/&lt;name&gt;/</text>
  <text x="104" y="482" font-size="10.5" fill="#475569">published_to 有 → 更新; 无 → 全新</text>
  <line x1="230.0" y1="493" x2="230.0" y2="501" stroke="#2563eb" stroke-width="1.5" marker-end="url(#arrow-blue)"/>
  <rect x="92" y="502" width="276" height="58" rx="6" fill="#ffffff" stroke="#2563eb" stroke-width="1.2" filter="url(#soft)"/>
  <text x="104" y="521" font-size="12.5" font-weight="700" fill="#2563eb">2. 字段补全 (全新)</text>
  <text x="104" y="536" font-size="10.5" fill="#475569">name / desc / version=0.1.0 /</text>
  <text x="104" y="549" font-size="10.5" fill="#475569">author / updated_at / origin=own</text>
  <line x1="230.0" y1="560" x2="230.0" y2="568" stroke="#2563eb" stroke-width="1.5" marker-end="url(#arrow-blue)"/>
  <rect x="92" y="569" width="276" height="58" rx="6" fill="#ffffff" stroke="#2563eb" stroke-width="1.2" filter="url(#soft)"/>
  <text x="104" y="588" font-size="12.5" font-weight="700" fill="#2563eb">3. README 4 段</text>
  <text x="104" y="603" font-size="10.5" fill="#475569">介绍 / 何时用 /</text>
  <text x="104" y="616" font-size="10.5" fill="#475569">触发示例 ≥3 / 期望输出</text>
  <line x1="230.0" y1="627" x2="230.0" y2="635" stroke="#2563eb" stroke-width="1.5" marker-end="url(#arrow-blue)"/>
  <rect x="92" y="636" width="276" height="58" rx="6" fill="#ffffff" stroke="#2563eb" stroke-width="1.2" filter="url(#soft)"/>
  <text x="104" y="655" font-size="12.5" font-weight="700" fill="#2563eb">4. bump (更新分支)</text>
  <text x="104" y="670" font-size="10.5" fill="#475569">默认 patch +1</text>
  <text x="104" y="683" font-size="10.5" fill="#475569">major 强提示需人手 review</text>
  <line x1="230.0" y1="694" x2="230.0" y2="702" stroke="#2563eb" stroke-width="1.5" marker-end="url(#arrow-blue)"/>
  <rect x="92" y="703" width="276" height="58" rx="6" fill="#ffffff" stroke="#2563eb" stroke-width="1.2" filter="url(#soft)"/>
  <text x="104" y="722" font-size="12.5" font-weight="700" fill="#2563eb">5. cp + commit + PR</text>
  <text x="104" y="737" font-size="10.5" fill="#475569">own-skills/&lt;name&gt;/ →</text>
  <text x="104" y="750" font-size="10.5" fill="#475569">gh pr create</text>
  <rect x="290" y="709" width="72" height="16" rx="8" fill="#fef3c7" stroke="#ca8a04" stroke-width="0.8"/>
  <text x="326.0" y="721" text-anchor="middle" font-size="9.5" font-weight="600" fill="#854d0e">↪ pr-body</text>
  <line x1="230.0" y1="761" x2="230.0" y2="769" stroke="#2563eb" stroke-width="1.5" marker-end="url(#arrow-blue)"/>
  <rect x="92" y="770" width="276" height="58" rx="6" fill="#ffffff" stroke="#2563eb" stroke-width="1.2" filter="url(#soft)"/>
  <text x="104" y="789" font-size="12.5" font-weight="700" fill="#2563eb">6. 回填 + dogfood</text>
  <text x="104" y="804" font-size="10.5" fill="#475569">published_* 写回 local</text>
  <text x="104" y="817" font-size="10.5" fill="#475569">dogfood entry=A</text>
  <rect x="420" y="362" width="300" height="54" rx="8" fill="#059669" />
  <text x="434" y="385" font-size="14" font-weight="700" fill="#ffffff">路径 B — external in-context</text>
  <text x="434" y="405" font-size="11" fill="#dbeafe" fill-opacity="0.95">适用: 上下文里用过的 external</text>
  <rect x="420" y="424" width="300" height="415" rx="8" fill="#ecfdf5" stroke="#059669" stroke-width="1" stroke-opacity="0.35"/>
  <rect x="432" y="435" width="276" height="58" rx="6" fill="#ffffff" stroke="#059669" stroke-width="1.2" filter="url(#soft)"/>
  <text x="444" y="454" font-size="12.5" font-weight="700" fill="#059669">B.1 REASON</text>
  <text x="444" y="469" font-size="10.5" fill="#475569">猜 1-2 个 reason_kind 候选</text>
  <text x="444" y="482" font-size="10.5" fill="#475569">(7 选 1 封闭枚举)</text>
  <line x1="570.0" y1="493" x2="570.0" y2="501" stroke="#059669" stroke-width="1.5" marker-end="url(#arrow-green)"/>
  <rect x="432" y="502" width="276" height="58" rx="6" fill="#ffffff" stroke="#059669" stroke-width="1.2" filter="url(#soft)"/>
  <text x="444" y="521" font-size="12.5" font-weight="700" fill="#059669">B.2 CASE_IMMEDIATE</text>
  <text x="444" y="536" font-size="10.5" fill="#475569">抓会话生成草稿</text>
  <text x="444" y="549" font-size="10.5" fill="#475569">4 选项: 用 / 改 / 自写 / 延迟</text>
  <rect x="624" y="508" width="78" height="16" rx="8" fill="#dbeafe" stroke="#2563eb" stroke-width="0.8"/>
  <text x="663.0" y="520" text-anchor="middle" font-size="9.5" font-weight="600" fill="#1e40af">↪ case-file</text>
  <line x1="570.0" y1="560" x2="570.0" y2="568" stroke="#059669" stroke-width="1.5" marker-end="url(#arrow-green)"/>
  <rect x="432" y="569" width="276" height="58" rx="6" fill="#ffffff" stroke="#059669" stroke-width="1.2" filter="url(#soft)"/>
  <text x="444" y="588" font-size="12.5" font-weight="700" fill="#059669">B.3 PENDING_DEFERRED</text>
  <text x="444" y="603" font-size="10.5" fill="#475569">每轮末尾 4 条自检 (b+c+d)</text>
  <text x="444" y="616" font-size="10.5" fill="#475569">超时 2 轮 → 自动关闭</text>
  <line x1="570.0" y1="627" x2="570.0" y2="635" stroke="#059669" stroke-width="1.5" marker-end="url(#arrow-green)"/>
  <rect x="432" y="636" width="276" height="58" rx="6" fill="#ffffff" stroke="#059669" stroke-width="1.2" filter="url(#soft)"/>
  <text x="444" y="655" font-size="12.5" font-weight="700" fill="#059669">B.4 CASE_DEFERRED</text>
  <text x="444" y="670" font-size="10.5" fill="#475569">append 同一 &lt;recommender&gt;.md</text>
  <text x="444" y="683" font-size="10.5" fill="#475569">不开新文件 (§6)</text>
  <rect x="624" y="642" width="78" height="16" rx="8" fill="#dbeafe" stroke="#2563eb" stroke-width="0.8"/>
  <text x="663.0" y="654" text-anchor="middle" font-size="9.5" font-weight="600" fill="#1e40af">↪ case-file</text>
  <line x1="570.0" y1="694" x2="570.0" y2="702" stroke="#059669" stroke-width="1.5" marker-end="url(#arrow-green)"/>
  <rect x="432" y="703" width="276" height="58" rx="6" fill="#ffffff" stroke="#059669" stroke-width="1.2" filter="url(#soft)"/>
  <text x="444" y="722" font-size="12.5" font-weight="700" fill="#059669">B.5 PR</text>
  <text x="444" y="737" font-size="10.5" fill="#475569">薄指针 SKILL.md + case 文件</text>
  <text x="444" y="750" font-size="10.5" fill="#475569">推荐入口标 B</text>
  <rect x="630" y="709" width="72" height="16" rx="8" fill="#fef3c7" stroke="#ca8a04" stroke-width="0.8"/>
  <text x="666.0" y="721" text-anchor="middle" font-size="9.5" font-weight="600" fill="#854d0e">↪ pr-body</text>
  <line x1="570.0" y1="761" x2="570.0" y2="769" stroke="#059669" stroke-width="1.5" marker-end="url(#arrow-green)"/>
  <rect x="432" y="770" width="276" height="58" rx="6" fill="#ffffff" stroke="#059669" stroke-width="1.2" filter="url(#soft)"/>
  <text x="444" y="789" font-size="12.5" font-weight="700" fill="#059669">B.6 dogfood</text>
  <text x="444" y="804" font-size="10.5" fill="#475569">entry=B + case_count</text>
  <text x="444" y="817" font-size="10.5" fill="#475569">+ deferred_offered/accepted</text>
  <rect x="760" y="362" width="300" height="54" rx="8" fill="#ea580c" />
  <text x="774" y="385" font-size="14" font-weight="700" fill="#ffffff">路径 C — external cold-start</text>
  <text x="774" y="405" font-size="11" fill="#dbeafe" fill-opacity="0.95">适用: 给 URL, 不靠上下文</text>
  <rect x="760" y="424" width="300" height="415" rx="8" fill="#fff7ed" stroke="#ea580c" stroke-width="1" stroke-opacity="0.35"/>
  <rect x="772" y="435" width="276" height="58" rx="6" fill="#ffffff" stroke="#ea580c" stroke-width="1.2" filter="url(#soft)"/>
  <text x="784" y="454" font-size="12.5" font-weight="700" fill="#ea580c">C.1 FETCH</text>
  <text x="784" y="469" font-size="10.5" fill="#475569">WebFetch url</text>
  <text x="784" y="482" font-size="10.5" fill="#475569">启发式找 SKILL.md / README</text>
  <line x1="910.0" y1="493" x2="910.0" y2="501" stroke="#ea580c" stroke-width="1.5" marker-end="url(#arrow-orange)"/>
  <rect x="772" y="502" width="276" height="58" rx="6" fill="#ffffff" stroke="#ea580c" stroke-width="1.2" filter="url(#soft)"/>
  <text x="784" y="521" font-size="12.5" font-weight="700" fill="#ea580c">C.2 REASON 引导</text>
  <text x="784" y="536" font-size="10.5" fill="#475569">逐步问 reason_kind</text>
  <text x="784" y="549" font-size="10.5" fill="#475569">不一上来要 5 字段</text>
  <line x1="910.0" y1="560" x2="910.0" y2="568" stroke="#ea580c" stroke-width="1.5" marker-end="url(#arrow-orange)"/>
  <rect x="772" y="569" width="276" height="58" rx="6" fill="#ffffff" stroke="#ea580c" stroke-width="1.2" filter="url(#soft)"/>
  <text x="784" y="588" font-size="12.5" font-weight="700" fill="#ea580c">C.3 SCENARIO</text>
  <text x="784" y="603" font-size="10.5" fill="#475569">≤200 字 适合场景</text>
  <text x="784" y="616" font-size="10.5" fill="#475569">→ scenario_tag</text>
  <line x1="910.0" y1="627" x2="910.0" y2="635" stroke="#ea580c" stroke-width="1.5" marker-end="url(#arrow-orange)"/>
  <rect x="772" y="636" width="276" height="58" rx="6" fill="#ffffff" stroke="#ea580c" stroke-width="1.2" filter="url(#soft)"/>
  <text x="784" y="655" font-size="12.5" font-weight="700" fill="#ea580c">C.4 CASE_OPTIONAL</text>
  <text x="784" y="670" font-size="10.5" fill="#475569">可选: 截图 / 日志</text>
  <text x="784" y="683" font-size="10.5" fill="#475569">cold-start 用户未必用过</text>
  <rect x="964" y="642" width="78" height="16" rx="8" fill="#dbeafe" stroke="#2563eb" stroke-width="0.8"/>
  <text x="1003.0" y="654" text-anchor="middle" font-size="9.5" font-weight="600" fill="#1e40af">↪ case-file</text>
  <line x1="910.0" y1="694" x2="910.0" y2="702" stroke="#ea580c" stroke-width="1.5" marker-end="url(#arrow-orange)"/>
  <rect x="772" y="703" width="276" height="58" rx="6" fill="#ffffff" stroke="#ea580c" stroke-width="1.2" filter="url(#soft)"/>
  <text x="784" y="722" font-size="12.5" font-weight="700" fill="#ea580c">C.5 PR</text>
  <text x="784" y="737" font-size="10.5" fill="#475569">同 B.5 结构</text>
  <text x="784" y="750" font-size="10.5" fill="#475569">推荐入口标 C</text>
  <rect x="970" y="709" width="72" height="16" rx="8" fill="#fef3c7" stroke="#ca8a04" stroke-width="0.8"/>
  <text x="1006.0" y="721" text-anchor="middle" font-size="9.5" font-weight="600" fill="#854d0e">↪ pr-body</text>
  <line x1="910.0" y1="761" x2="910.0" y2="769" stroke="#ea580c" stroke-width="1.5" marker-end="url(#arrow-orange)"/>
  <rect x="772" y="770" width="276" height="58" rx="6" fill="#ffffff" stroke="#ea580c" stroke-width="1.2" filter="url(#soft)"/>
  <text x="784" y="789" font-size="12.5" font-weight="700" fill="#ea580c">dogfood</text>
  <text x="784" y="804" font-size="10.5" fill="#475569">entry=C + case_count</text>
  <text x="784" y="817" font-size="10.5" fill="#475569">(可能 = 0)</text>
  <rect x="1100" y="362" width="300" height="54" rx="8" fill="#7c3aed" />
  <text x="1114" y="385" font-size="14" font-weight="700" fill="#ffffff">路径 D — 加案例 (case-only)</text>
  <text x="1114" y="405" font-size="11" fill="#dbeafe" fill-opacity="0.95">适用: 已存在的 external-skill</text>
  <rect x="1100" y="424" width="300" height="415" rx="8" fill="#f5f3ff" stroke="#7c3aed" stroke-width="1" stroke-opacity="0.35"/>
  <rect x="1112" y="435" width="276" height="58" rx="6" fill="#ffffff" stroke="#7c3aed" stroke-width="1.2" filter="url(#soft)"/>
  <text x="1124" y="454" font-size="12.5" font-weight="700" fill="#7c3aed">D.1 定位</text>
  <text x="1124" y="469" font-size="10.5" fill="#475569">ls external-skills/&lt;name&gt;/cases/</text>
  <text x="1124" y="482" font-size="10.5" fill="#475569">不存在 → 转 B 路径</text>
  <line x1="1250.0" y1="493" x2="1250.0" y2="501" stroke="#7c3aed" stroke-width="1.5" marker-end="url(#arrow-purple)"/>
  <rect x="1112" y="502" width="276" height="58" rx="6" fill="#ffffff" stroke="#7c3aed" stroke-width="1.2" filter="url(#soft)"/>
  <text x="1124" y="521" font-size="12.5" font-weight="700" fill="#7c3aed">D.2 同名 case 检查</text>
  <text x="1124" y="536" font-size="10.5" fill="#475569">存在 → append / overwrite</text>
  <text x="1124" y="549" font-size="10.5" fill="#475569">不存在 → new</text>
  <line x1="1250.0" y1="560" x2="1250.0" y2="568" stroke="#7c3aed" stroke-width="1.5" marker-end="url(#arrow-purple)"/>
  <rect x="1112" y="569" width="276" height="58" rx="6" fill="#ffffff" stroke="#7c3aed" stroke-width="1.2" filter="url(#soft)"/>
  <text x="1124" y="588" font-size="12.5" font-weight="700" fill="#7c3aed">D.3 REASON + CASE</text>
  <text x="1124" y="603" font-size="10.5" fill="#475569">复用 B.1 + B.2</text>
  <text x="1124" y="616" font-size="10.5" fill="#475569">跳过 B.3 PENDING</text>
  <rect x="1304" y="575" width="78" height="16" rx="8" fill="#dbeafe" stroke="#2563eb" stroke-width="0.8"/>
  <text x="1343.0" y="587" text-anchor="middle" font-size="9.5" font-weight="600" fill="#1e40af">↪ case-file</text>
  <line x1="1250.0" y1="627" x2="1250.0" y2="635" stroke="#7c3aed" stroke-width="1.5" marker-end="url(#arrow-purple)"/>
  <rect x="1112" y="636" width="276" height="58" rx="6" fill="#ffffff" stroke="#7c3aed" stroke-width="1.2" filter="url(#soft)"/>
  <text x="1124" y="655" font-size="12.5" font-weight="700" fill="#7c3aed">D.4 PR (case-only)</text>
  <text x="1124" y="670" font-size="10.5" fill="#475569">只动 cases/</text>
  <text x="1124" y="683" font-size="10.5" fill="#475569">不改 SKILL.md frontmatter</text>
  <rect x="1310" y="642" width="72" height="16" rx="8" fill="#fef3c7" stroke="#ca8a04" stroke-width="0.8"/>
  <text x="1346.0" y="654" text-anchor="middle" font-size="9.5" font-weight="600" fill="#854d0e">↪ pr-body</text>
  <line x1="1250.0" y1="694" x2="1250.0" y2="702" stroke="#7c3aed" stroke-width="1.5" marker-end="url(#arrow-purple)"/>
  <rect x="1112" y="703" width="276" height="58" rx="6" fill="#ffffff" stroke="#7c3aed" stroke-width="1.2" filter="url(#soft)"/>
  <text x="1124" y="722" font-size="12.5" font-weight="700" fill="#7c3aed">D.5 dogfood</text>
  <text x="1124" y="737" font-size="10.5" fill="#475569">entry=D + case_op</text>
  <text x="1124" y="750" font-size="10.5" fill="#475569">(append / overwrite / new)</text>
  <text x="80" y="856" font-size="12" font-weight="700" fill="#475569">共享模板 (同目录 templates/)</text>
  <rect x="80" y="863" width="600" height="72" rx="8" fill="#fef3c7" stroke="#ca8a04" stroke-width="1.3" filter="url(#soft)"/>
  <text x="96" y="885" font-size="14" font-weight="700" fill="#ca8a04">templates/pr-body.md</text>
  <text x="96" y="905" font-size="12" fill="#334155">4 路径共用 PR body 模板</text>
  <text x="96" y="923" font-size="10.5" fill="#64748b">variant: own | external | add-case · entry: B | C</text>
  <rect x="578" y="873" width="90" height="18" rx="9" fill="#ffffff" stroke="#ca8a04" stroke-width="1"/>
  <text x="623.0" y="886" text-anchor="middle" font-size="10" font-weight="600" fill="#ca8a04">用于 A · B · C · D</text>
  <rect x="720" y="863" width="600" height="72" rx="8" fill="#dbeafe" stroke="#2563eb" stroke-width="1.3" filter="url(#soft)"/>
  <text x="736" y="885" font-size="14" font-weight="700" fill="#2563eb">templates/case-file.md</text>
  <text x="736" y="905" font-size="12" fill="#334155">case 文件骨架 (frontmatter + 4 段 body)</text>
  <text x="736" y="923" font-size="10.5" fill="#64748b">reason_kind (7 enum) · 多场景 append 规则 (§6)</text>
  <rect x="1218" y="873" width="90" height="18" rx="9" fill="#ffffff" stroke="#2563eb" stroke-width="1"/>
  <text x="1263.0" y="886" text-anchor="middle" font-size="10" font-weight="600" fill="#2563eb">用于 B · C · D</text>
  <rect x="80" y="963" width="1240" height="60" rx="8" fill="#0f172a"/>
  <text x="100" y="987" font-size="13" font-weight="700" fill="#f1f5f9">⇩ 公共产物</text>
  <text x="100" y="1007" font-size="12" fill="#cbd5e1">PR @ aistore-labs/claude-skills (按 pr-body.md checklist 模板) · dogfood log @ &lt;cache&gt;/.dogfood-r1.log · own 还回填本地 frontmatter published_*</text>
  <line x1="230.0" y1="841" x2="230.0" y2="961" stroke="#2563eb" stroke-width="1.5" stroke-dasharray="4,3" stroke-opacity="0.7"/>
  <line x1="230.0" y1="949" x2="230.0" y2="961" stroke="#2563eb" stroke-width="1.5" marker-end="url(#arrow-blue)"/>
  <line x1="570.0" y1="841" x2="570.0" y2="961" stroke="#059669" stroke-width="1.5" stroke-dasharray="4,3" stroke-opacity="0.7"/>
  <line x1="570.0" y1="949" x2="570.0" y2="961" stroke="#059669" stroke-width="1.5" marker-end="url(#arrow-green)"/>
  <line x1="910.0" y1="841" x2="910.0" y2="961" stroke="#ea580c" stroke-width="1.5" stroke-dasharray="4,3" stroke-opacity="0.7"/>
  <line x1="910.0" y1="949" x2="910.0" y2="961" stroke="#ea580c" stroke-width="1.5" marker-end="url(#arrow-orange)"/>
  <line x1="1250.0" y1="841" x2="1250.0" y2="961" stroke="#7c3aed" stroke-width="1.5" stroke-dasharray="4,3" stroke-opacity="0.7"/>
  <line x1="1250.0" y1="949" x2="1250.0" y2="961" stroke="#7c3aed" stroke-width="1.5" marker-end="url(#arrow-purple)"/>
  <text x="80" y="1047" font-size="11" font-weight="600" fill="#64748b">关键约束 (What NOT to do 摘录):</text>
  <text x="240" y="1047" font-size="11" fill="#64748b">不反向问用户填字段 · 不直 push main · 不调子 LLM · 不用 Claude hook 实现延迟案例 · external SKILL.md 必须是薄指针 · 同 recommender 单 case 文件 append</text>
</svg>