<svg width="240" height="240" viewBox="0 0 240 240" preserveAspectRatio="xMidYMid meet" fill="none" xmlns="http://www.w3.org/2000/svg">
<g id="Frame 162">
<rect width="240" height="240" fill="white"/>
<g id="Vector">
<path d="M185.457 64.0021C186.289 64.0021 186.809 64.9028 186.394 65.6234L176.749 82.3429C175.204 85.0224 172.344 86.6725 169.251 86.6695L125.666 86.6261C123.8 86.6242 122.075 87.618 121.14 89.2331L75.9361 167.338C75.5376 168.026 74.5567 168.063 74.1079 167.407L64.3 153.049C62.4242 150.304 62.2892 146.726 63.9527 143.846L96.4643 87.5762C96.7157 87.1412 96.4021 86.5971 95.8996 86.5966L63.9865 86.565C63.1552 86.5642 62.6351 85.6639 63.0502 84.9437L72.6312 68.3277C74.1752 65.6498 77.0312 63.9999 80.1223 64L185.457 64.0021Z" fill="var(--fill-0, #E63A46)"/>
<path d="M127.932 102.265C128.865 100.649 130.589 99.6527 132.455 99.6525L176.981 99.6487C177.986 99.6486 178.615 100.737 178.112 101.608L168.267 118.654C167.333 120.27 165.609 121.266 163.743 121.265L118.098 121.262C117.595 121.262 117.281 120.718 117.533 120.282L127.932 102.265Z" fill="var(--fill-0, #E63A46)"/>
<path d="M157.02 134.929C157.852 134.929 158.372 135.83 157.956 136.551L148.909 152.23C147.364 154.907 144.509 156.555 141.419 156.555L124.394 156.553C122.525 156.553 120.799 157.551 119.867 159.171L101.93 190.334C100.385 193.017 97.5239 194.669 94.428 194.667L76.4598 194.652C75.6282 194.651 75.1087 193.75 75.5246 193.03L101.991 147.198H102.018L106.612 139.253C108.157 136.58 111.01 134.934 114.097 134.933L157.02 134.929Z" fill="var(--fill-0, #E63A46)"/>
</g>
</g>
</svg>
