<svg width="226" height="48" viewBox="0 0 225.97 48.0002" preserveAspectRatio="xMidYMid meet" fill="none" xmlns="http://www.w3.org/2000/svg">
<g id="Tran Fu">
<g id="Vector">
<path d="M225.97 11.6248V47.9072H215.851V43.3755C215.851 43.3755 212.501 46.0124 211.48 46.5689C209.844 47.5229 207.928 48 205.732 48C202.18 48 199.386 46.867 197.35 44.6012C195.354 42.2956 194.356 39.0956 194.356 35.0012V11.5677H204.475V32.6757C204.475 34.4646 204.954 35.8956 205.912 36.9689C206.87 38.0422 208.127 38.5788 209.684 38.5788C211.56 38.5788 213.057 38.7445 214.175 37.5917C215.292 36.3991 215.851 34.8091 215.851 32.8215V11.6248H225.97Z" fill="var(--fill-0, #E63A46)"/>
<path d="M167.994 30.1118V48H157.517V1.50204e-05H188.651V9.7789H167.994V20.3329H187.214V30.1118H167.994Z" fill="var(--fill-0, #E63A46)"/>
<path d="M108.503 48V12.4025H118.622V17.0534H118.921C119.959 15.3441 121.316 14.0124 122.993 13.0584C124.709 12.0646 126.665 11.5677 128.86 11.5677C132.413 11.5677 135.167 12.7205 137.123 15.0261C139.118 17.2919 140.116 20.5317 140.116 24.7453V48H129.998V27.0708C129.998 25.2422 129.539 23.8112 128.621 22.7776C127.703 21.7043 126.445 21.1677 124.849 21.1677C122.973 21.1677 121.456 21.764 120.298 22.9565C119.181 24.1093 118.622 25.6994 118.622 27.7267V48H108.503Z" fill="var(--fill-0, #E63A46)"/>
<path d="M82.0845 47.9289C78.9311 47.9289 76.3167 47.0345 74.2411 45.2457C72.2053 43.4171 71.1875 40.9128 71.1875 37.7327C71.1875 35.2681 71.886 33.1016 73.2831 31.2333C74.6801 29.365 76.656 27.9339 79.2106 26.9401C81.8051 25.9066 84.8187 25.3898 88.2515 25.3898H91.4846V24.4954C91.4846 22.7463 90.9215 21.6532 89.9236 20.739C88.9656 19.7849 87.6085 19.3079 85.8522 19.3079C83.3375 19.3079 81.0623 20.5402 79.0266 23.0048L72.4405 17.9961C76.3124 13.2657 81.222 10.9004 87.1694 10.9004C90.0034 10.9004 92.5181 11.4768 94.7135 12.6296C96.9089 13.7427 98.6053 15.3129 99.8027 17.3402C101 19.3675 101.663 21.4743 101.663 24.1376V47.9997H91.4846V43.0395H91.1254C90.4069 44.6296 89.2494 45.842 87.6527 46.6768C86.0561 47.5115 84.2 47.9289 82.0845 47.9289ZM85.2578 39.6407C87.054 39.6407 88.5309 39.2432 89.6884 38.4482C90.8859 37.6134 91.4846 36.4805 91.4846 35.0494V33.6184H89.2693C86.6748 33.6184 84.7389 33.8768 83.4616 34.3935C82.1843 34.9103 81.5456 35.7848 81.5456 37.0171C81.5456 37.7724 81.865 38.4084 82.5036 38.9252C83.1822 39.4022 84.1002 39.6407 85.2578 39.6407Z" fill="var(--fill-0, #E63A46)"/>
<path d="M42.1531 48L42.1397 11.5912H52.7972L52.7974 18.8422H53.1566C55.6713 13.9925 60.0421 11.5677 66.2689 11.5677H66.6282V21.4062H66.0893C61.4192 21.4062 58.0263 22.1814 55.9108 23.7317C53.8352 25.2422 52.7974 27.5478 52.7974 30.6484V48H42.1531Z" fill="var(--fill-0, #E63A46)"/>
<path d="M23.6501 48H13.1722V9.7789H0V1.50204e-05H36.7624V9.7789H23.6501V48Z" fill="var(--fill-0, #E63A46)"/>
</g>
</g>
</svg>
