<svg width="114" height="120" viewBox="0 0 113.543 119.893" preserveAspectRatio="xMidYMid meet" fill="none" xmlns="http://www.w3.org/2000/svg">
<g id="Group 2">
<path id="Union" d="M112.55 0.00193699C113.313 0.00195443 113.791 0.828392 113.409 1.48954L104.56 16.8304C103.142 19.289 100.518 20.803 97.6799 20.8003L59.5023 20.7622C56.6679 20.7594 54.0474 22.2688 52.6276 24.7219L12.0594 94.8173C11.6938 95.449 10.7937 95.483 10.382 94.8802L1.38275 81.7068C-0.338367 79.1875 -0.462193 75.9044 1.06412 73.2625L30.5551 22.2206C30.9368 21.5598 30.4605 20.7335 29.6973 20.7327L1.09511 20.7044C0.332401 20.7037 -0.144843 19.8776 0.23606 19.2168L9.02706 3.97082C10.4437 1.51379 13.0642 -6.48164e-05 15.9004 2.08141e-09L112.55 0.00193699Z" fill="var(--fill-0, #E63A46)"/>
<path id="Rectangle 4" d="M58.861 36.6803C60.278 34.2252 62.8972 32.7126 65.7318 32.7124L103.412 32.7092C104.939 32.7091 105.893 34.3623 105.13 35.6847L97.6836 48.5773C96.2661 51.0317 93.6469 52.5435 90.8126 52.5433L51.4245 52.5401C50.6612 52.54 50.1841 51.7137 50.5657 51.0526L58.861 36.6803Z" fill="var(--fill-0, #E63A46)"/>
<path id="Subtract" d="M86.4583 65.0807C87.2217 65.0807 87.6989 65.9072 87.3174 66.5684L79.0164 80.9553C77.5993 83.411 74.9793 84.9234 72.144 84.9232L58.3396 84.9218C55.501 84.9215 52.8786 86.4377 51.4626 88.8978L35.9108 115.917C34.4937 118.379 31.8683 119.895 29.0277 119.893L12.5411 119.879C11.778 119.878 11.3014 119.051 11.683 118.39L35.967 76.3375H35.9922L40.207 69.0477C41.6247 66.5957 44.2423 65.0851 47.0746 65.0846L86.4583 65.0807Z" fill="var(--fill-0, #E63A46)"/>
</g>
</svg>
