<svg width="632" height="172" viewBox="0 0 632 172" preserveAspectRatio="xMidYMid meet" fill="none" xmlns="http://www.w3.org/2000/svg">
<g id="logos/svg/logo-lockup-h-en-primary-on-light.svg">
<g id="Vector">
<path d="M622.415 63.1407V130.923H603.511V122.457C603.511 122.457 597.253 127.383 595.346 128.423C592.289 130.205 588.709 131.096 584.608 131.096C577.971 131.096 572.751 128.98 568.948 124.747C565.22 120.44 563.356 114.461 563.356 106.812V63.034H582.259V102.468C582.259 105.81 583.154 108.483 584.944 110.488C586.733 112.493 589.082 113.496 591.99 113.496C595.495 113.496 598.292 113.805 600.379 111.652C602.467 109.424 603.511 106.453 603.511 102.74V63.1407H622.415Z" fill="var(--fill-0, #E63A46)"/>
<path d="M514.106 97.6781V131.097H494.532V41.4236H552.696V59.6924H514.106V79.4093H550.012V97.6781H514.106Z" fill="var(--fill-0, #E63A46)"/>
<path d="M402.964 131.096V64.5936H421.868V73.2824H422.427C424.366 70.0891 426.901 67.6013 430.033 65.8189C433.24 63.9624 436.894 63.0341 440.995 63.0341C447.632 63.0341 452.777 65.1877 456.431 69.495C460.159 73.728 462.024 79.7805 462.024 87.6524V131.096H443.12V91.9968C443.12 88.5807 442.263 85.9072 440.548 83.9763C438.832 81.9712 436.483 80.9687 433.501 80.9687C429.996 80.9687 427.162 82.0826 425 84.3105C422.912 86.4642 421.868 89.4347 421.868 93.2221V131.096H402.964Z" fill="var(--fill-0, #E63A46)"/>
<path d="M353.611 130.964C347.72 130.964 342.836 129.293 338.958 125.951C335.155 122.535 333.254 117.857 333.254 111.915C333.254 107.311 334.559 103.264 337.169 99.7734C339.779 96.283 343.47 93.6095 348.242 91.7529C353.089 89.8221 358.719 88.8567 365.133 88.8567H371.173V87.1857C371.173 83.9181 370.121 81.876 368.256 80.168C366.467 78.3857 363.931 77.4945 360.65 77.4945C355.952 77.4945 351.702 79.7967 347.899 84.401L335.595 75.0438C342.828 66.2065 352 61.7878 363.111 61.7878C368.406 61.7878 373.103 62.8646 377.205 65.0183C381.306 67.0976 384.475 70.031 386.712 73.8185C388.95 77.6059 390.188 81.5417 390.188 86.5174V131.096H371.173V121.83H370.502C369.159 124.8 366.997 127.065 364.014 128.625C361.031 130.184 357.564 130.964 353.611 130.964ZM359.54 115.48C362.895 115.48 365.655 114.737 367.817 113.252C370.054 111.693 371.173 109.576 371.173 106.903V104.229H367.034C362.187 104.229 358.57 104.712 356.184 105.677C353.798 106.643 352.605 108.277 352.605 110.579C352.605 111.99 353.201 113.178 354.394 114.143C355.662 115.034 357.377 115.48 359.54 115.48Z" fill="var(--fill-0, #E63A46)"/>
<path d="M279.011 131.097L278.986 63.078H298.896L298.897 76.6243H299.568C304.266 67.5642 312.431 63.0341 324.064 63.0341H324.735V81.4143H323.729C315.004 81.4143 308.665 82.8625 304.713 85.7587C300.836 88.5807 298.897 92.888 298.897 98.6806V131.097H279.011Z" fill="var(--fill-0, #E63A46)"/>
<path d="M244.443 131.097H224.868V59.6924H200.26V41.4236H268.939V59.6924H244.443V131.097Z" fill="var(--fill-0, #E63A46)"/>
</g>
<g id="Vector_2">
<path d="M164.116 3.5825C165.166 3.58252 165.823 4.71962 165.298 5.6293L153.123 26.737C151.171 30.1197 147.561 32.2028 143.656 32.1991L91.1274 32.1467C87.2276 32.1429 83.6219 34.2197 81.6685 37.5949L25.8504 134.04C25.3473 134.909 24.109 134.955 23.5424 134.126L11.1604 116.001C8.79225 112.534 8.62188 108.017 10.7219 104.382L51.2987 34.1533C51.824 33.2442 51.1686 32.1072 50.1186 32.1061L10.7646 32.0672C9.71517 32.0661 9.05852 30.9295 9.58261 30.0204L21.6782 9.04331C23.6274 5.66267 27.233 3.57974 31.1353 3.57983L164.116 3.5825Z" fill="var(--fill-0, #E63A46)"/>
<path d="M90.2455 54.0484C92.1952 50.6704 95.7989 48.5893 99.6991 48.589L151.543 48.5846C153.644 48.5844 154.958 50.8591 153.907 52.6785L143.662 70.4176C141.711 73.7946 138.108 75.8747 134.208 75.8744L80.0136 75.87C78.9633 75.8699 78.3069 74.733 78.8319 73.8234L90.2455 54.0484Z" fill="var(--fill-0, #E63A46)"/>
<path d="M128.216 93.1247C129.267 93.1246 129.923 94.2618 129.398 95.1715L117.977 114.967C116.027 118.345 112.422 120.426 108.521 120.426L89.5276 120.424C85.622 120.424 82.0138 122.51 80.0654 125.895L58.6677 163.07C56.7179 166.458 53.1056 168.544 49.1972 168.541L26.5132 168.522C25.4632 168.521 24.8075 167.383 25.3325 166.474L58.745 108.613H58.7796L64.5789 98.5829C66.5295 95.2091 70.131 93.1307 74.028 93.1301L128.216 93.1247Z" fill="var(--fill-0, #E63A46)"/>
</g>
</g>
</svg>
