<svg preserveAspectRatio="none" width="100%" height="100%" overflow="visible" style="display: block;" viewBox="0 0 625.49 170.073" fill="none" xmlns="http://www.w3.org/2000/svg">
<g id="logos/svg/logo-lockup-h-en-primary-on-light.svg">
<g id="Vector">
<path d="M619.16 62.1406V129.923H600.256V121.457C600.256 121.457 593.998 126.383 592.091 127.423C589.034 129.205 585.454 130.096 581.353 130.096C574.716 130.096 569.497 127.98 565.693 123.747C561.965 119.44 560.101 113.461 560.101 105.812V62.0339H579.004V101.468C579.004 104.81 579.899 107.483 581.689 109.488C583.478 111.493 585.827 112.496 588.736 112.496C592.24 112.496 595.037 112.805 597.125 110.652C599.213 108.424 600.256 105.453 600.256 101.74V62.1406H619.16Z" fill="var(--fill-0, #E63A46)"/>
<path d="M510.851 96.6781V130.097H491.277V40.4235H549.441V58.6923H510.851V78.4093H546.757V96.6781H510.851Z" fill="var(--fill-0, #E63A46)"/>
<path d="M399.709 130.096V63.5935H418.613V72.2824H419.172C421.111 69.089 423.646 66.6012 426.778 64.8189C429.985 62.9623 433.639 62.034 437.74 62.034C444.377 62.034 449.522 64.1877 453.176 68.4949C456.905 72.7279 458.769 78.7804 458.769 86.6523V130.096H439.865V90.9967C439.865 87.5806 439.008 84.9071 437.293 82.9763C435.578 80.9712 433.229 79.9686 430.246 79.9686C426.741 79.9686 423.907 81.0826 421.745 83.3105C419.657 85.4641 418.613 88.4347 418.613 92.2221V130.096H399.709Z" fill="var(--fill-0, #E63A46)"/>
<path d="M350.357 129.964C344.466 129.964 339.581 128.293 335.704 124.951C331.9 121.535 329.999 116.856 329.999 110.915C329.999 106.311 331.304 102.264 333.914 98.7733C336.524 95.283 340.215 92.6095 344.987 90.7529C349.835 88.822 355.465 87.8566 361.878 87.8566H367.918V86.1857C367.918 82.9181 366.866 80.876 365.001 79.1679C363.212 77.3856 360.676 76.4945 357.395 76.4945C352.697 76.4945 348.447 78.7966 344.644 83.401L332.34 74.0438C339.573 65.2064 348.745 60.7878 359.856 60.7878C365.151 60.7878 369.849 61.8646 373.95 64.0182C378.051 66.0976 381.22 69.031 383.458 72.8184C385.695 76.6059 386.933 80.5417 386.933 85.5173V130.096H367.918V120.83H367.247C365.904 123.8 363.742 126.065 360.759 127.625C357.776 129.184 354.309 129.964 350.357 129.964ZM356.285 114.48C359.641 114.48 362.4 113.737 364.562 112.252C366.799 110.693 367.918 108.576 367.918 105.903V103.229H363.779C358.932 103.229 355.315 103.712 352.929 104.677C350.543 105.643 349.35 107.276 349.35 109.579C349.35 110.99 349.946 112.178 351.14 113.143C352.407 114.034 354.122 114.48 356.285 114.48Z" fill="var(--fill-0, #E63A46)"/>
<path d="M275.756 130.096L275.731 62.0779H295.642L295.642 75.6243H296.313C301.011 66.5642 309.176 62.0341 320.809 62.0341H321.48V80.4143H320.474C311.749 80.4143 305.411 81.8624 301.458 84.7587C297.581 87.5807 295.642 91.888 295.642 97.6805V130.096H275.756Z" fill="var(--fill-0, #E63A46)"/>
<path d="M241.188 130.097H221.613V58.6923H197.005V40.4235H265.684V58.6923H241.188V130.097Z" fill="var(--fill-0, #E63A46)"/>
</g>
<g id="Vector_2">
<path d="M160.862 2.58244C161.912 2.58247 162.568 3.71957 162.044 4.62925L149.868 25.7369C147.917 29.1197 144.307 31.2028 140.402 31.199L87.8727 31.1467C83.9729 31.1428 80.3672 33.2196 78.4138 36.5949L22.5957 133.039C22.0926 133.909 20.8543 133.955 20.2878 133.126L7.90566 115.001C5.53756 111.534 5.36718 107.017 7.46725 103.382L48.044 33.1533C48.5693 32.2441 47.9139 31.1071 46.8639 31.1061L7.50989 31.0671C6.46047 31.0661 5.80383 29.9295 6.32791 29.0203L18.4235 8.04325C20.3727 4.66261 23.9783 2.57969 27.8806 2.57978L160.862 2.58244Z" fill="var(--fill-0, #E63A46)"/>
<path d="M86.9908 53.0483C88.9405 49.6704 92.5442 47.5893 96.4444 47.5889L148.289 47.5845C150.39 47.5844 151.703 49.859 150.652 51.6785L140.407 69.4175C138.457 72.7945 134.853 74.8746 130.953 74.8743L76.7589 74.87C75.7086 74.8699 75.0522 73.733 75.5772 72.8233L86.9908 53.0483Z" fill="var(--fill-0, #E63A46)"/>
<path d="M124.962 92.1247C126.012 92.1246 126.669 93.2617 126.144 94.1715L114.722 113.967C112.772 117.345 109.168 119.426 105.266 119.426L86.2729 119.424C82.3673 119.424 78.7591 121.51 76.8107 124.895L55.413 162.07C53.4632 165.458 49.8509 167.544 45.9425 167.541L23.2585 167.522C22.2085 167.521 21.5528 166.383 22.0778 165.474L55.4903 107.613H55.5249L61.3242 97.5828C63.2748 94.2091 66.8763 92.1306 70.7733 92.13L124.962 92.1247Z" fill="var(--fill-0, #E63A46)"/>
</g>
</g>
</svg>
