<?xml version="1.0" encoding="UTF-8"?>
<svg id="root" xmlns="http://www.w3.org/2000/svg" viewBox="0 0 3821 909" role="img" aria-label="TranFu">
  <title>TranFu</title>
<defs>
  <linearGradient id="tfRed" x1="25%" y1="8%" x2="72%" y2="96%">
    <stop offset="0%" stop-color="#ff2f37"/>
    <stop offset="48%" stop-color="#f42631"/>
    <stop offset="100%" stop-color="#bd0d1c"/>
  </linearGradient>
</defs>
  <g fill="url(#tfRed)" transform="translate(-190 -181)">
    <path d="M 294.0,181.0 L 279.0,185.0 L 262.0,195.0 L 256.0,201.0 L 249.0,211.0 L 218.0,268.0 L 191.0,314.0 L 190.0,322.0 L 192.0,325.0 L 195.0,326.0 L 433.0,326.0 L 436.0,325.0 L 437.0,326.0 L 445.0,326.0 L 449.0,328.0 L 454.0,335.0 L 454.0,340.0 L 448.0,352.0 L 442.0,368.0 L 412.0,434.0 L 395.0,475.0 L 390.0,484.0 L 368.0,536.0 L 356.0,561.0 L 354.0,568.0 L 338.0,602.0 L 336.0,609.0 L 320.0,643.0 L 318.0,650.0 L 290.0,711.0 L 284.0,727.0 L 284.0,748.0 L 286.0,753.0 L 308.0,790.0 L 308.0,792.0 L 316.0,804.0 L 316.0,806.0 L 334.0,836.0 L 334.0,838.0 L 344.0,854.0 L 351.0,868.0 L 358.0,873.0 L 364.0,873.0 L 368.0,871.0 L 373.0,865.0 L 375.0,858.0 L 385.0,838.0 L 387.0,831.0 L 403.0,797.0 L 409.0,781.0 L 437.0,720.0 L 443.0,704.0 L 445.0,702.0 L 445.0,700.0 L 453.0,684.0 L 456.0,675.0 L 461.0,666.0 L 467.0,650.0 L 471.0,643.0 L 471.0,641.0 L 475.0,634.0 L 475.0,632.0 L 479.0,625.0 L 505.0,564.0 L 511.0,553.0 L 517.0,537.0 L 521.0,530.0 L 561.0,438.0 L 566.0,429.0 L 570.0,418.0 L 575.0,409.0 L 603.0,345.0 L 612.0,335.0 L 621.0,329.0 L 631.0,326.0 L 755.0,326.0 L 756.0,325.0 L 760.0,326.0 L 985.0,326.0 L 1000.0,323.0 L 1016.0,315.0 L 1031.0,300.0 L 1047.0,270.0 L 1093.0,190.0 L 1092.0,184.0 L 1088.0,181.0 Z"/>
    <path d="M 711.0,441.0 L 697.0,445.0 L 688.0,450.0 L 675.0,463.0 L 640.0,531.0 L 623.0,561.0 L 620.0,569.0 L 621.0,572.0 L 624.0,575.0 L 964.0,575.0 L 965.0,574.0 L 970.0,574.0 L 979.0,571.0 L 991.0,564.0 L 1002.0,552.0 L 1042.0,480.0 L 1058.0,454.0 L 1059.0,446.0 L 1054.0,441.0 Z"/>
    <path d="M 592.0,690.0 L 582.0,693.0 L 570.0,700.0 L 560.0,712.0 L 523.0,797.0 L 518.0,806.0 L 516.0,813.0 L 496.0,856.0 L 494.0,863.0 L 488.0,874.0 L 482.0,890.0 L 472.0,910.0 L 470.0,917.0 L 442.0,978.0 L 440.0,985.0 L 438.0,987.0 L 438.0,989.0 L 398.0,1077.0 L 397.0,1085.0 L 402.0,1089.0 L 537.0,1089.0 L 543.0,1086.0 L 548.0,1081.0 L 567.0,1037.0 L 573.0,1026.0 L 597.0,970.0 L 602.0,961.0 L 623.0,912.0 L 658.0,836.0 L 667.0,828.0 L 677.0,824.0 L 807.0,824.0 L 808.0,823.0 L 814.0,823.0 L 829.0,817.0 L 836.0,812.0 L 846.0,800.0 L 868.0,760.0 L 904.0,700.0 L 904.0,694.0 L 900.0,690.0 Z"/>
  </g>
  <g fill="url(#tfRed)" transform="translate(1266 -14.15) scale(0.378242)">
      <path transform="translate(0 1984) scale(1 -1)" d="M75 1237V1490H1292V1237H837V0H531V1237Z"/>
      <path transform="translate(1367 1984) scale(1 -1)" d="M128 0V1118H418V923H430Q461 1026 533.5 1079.5Q606 1133 700 1133Q751 1133 797 1123V855Q777 861 738.5 865.5Q700 870 667 870Q563 870 495.5 805.0Q428 740 428 636V0Z"/>
      <path transform="translate(2201 1984) scale(1 -1)" d="M440 -22Q280 -22 174.0 62.5Q68 147 68 313Q68 438 128.0 509.0Q188 580 284.0 613.0Q380 646 490 656Q634 670 697.5 685.5Q761 701 761 756V761Q761 832 715.5 871.0Q670 910 586 910Q499 910 446.0 872.5Q393 835 375 781L100 827Q143 972 271.5 1052.0Q400 1132 587 1132Q707 1132 815.5 1094.0Q924 1056 992.5 972.5Q1061 889 1061 753V0H777V155H767Q726 77 645.0 27.5Q564 -22 440 -22ZM525 189Q630 189 696.5 250.0Q763 311 763 400V521Q745 508 704.5 498.5Q664 489 619.0 481.5Q574 474 541 470Q458 458 407.0 423.0Q356 388 356 321Q356 256 403.5 222.5Q451 189 525 189Z"/>
      <path transform="translate(3390 1984) scale(1 -1)" d="M428 647V0H128V1118H411L415 887Q462 1004 548.0 1068.0Q634 1132 763 1132Q937 1132 1042.0 1020.0Q1147 908 1147 711V0H847V659Q847 763 793.5 822.0Q740 881 645 881Q549 881 488.5 819.5Q428 758 428 647Z"/>
      <path transform="translate(4665 1984) scale(1 -1)" d="M750 1118V889H516V0H217V889H20V1118H217V1204Q217 1382 321.0 1471.0Q425 1560 580 1560Q651 1560 709.0 1549.0Q767 1538 795 1529L741 1303Q723 1308 696.5 1313.0Q670 1318 641 1318Q572 1318 544.0 1285.5Q516 1253 516 1194V1118Z"/>
      <path transform="translate(5480 1984) scale(1 -1)" d="M513 -14Q339 -14 233.5 98.0Q128 210 128 407V1118H428V459Q428 355 482.0 296.0Q536 237 630 237Q726 237 786.5 298.5Q847 360 847 471V1118H1148V0H864L860 232Q813 113 726.5 49.5Q640 -14 513 -14Z"/>
  </g>
</svg>
