<svg xmlns="http://www.w3.org/2000/svg" width="48" height="48" viewBox="0 0 48 48">
  <rect width="48" height="48" fill="#F1EAFE"/>
  <g transform="translate(9 9) scale(1.25)" fill="none" stroke="#6D28D9" stroke-width="1.6" stroke-linecap="round" stroke-linejoin="round">
    <path d="M10.5 3 8 9l4 13 4-13-2.5-6" />
  <path d="M17 3a2 2 0 0 1 1.6.8l3 4a2 2 0 0 1 .013 2.382l-7.99 10.986a2 2 0 0 1-3.247 0l-7.99-10.986A2 2 0 0 1 2.4 7.8l2.998-3.997A2 2 0 0 1 7 3z" />
  <path d="M2 9h20" />
  </g>
</svg>
